#!OML:ASF Y:\EmotionMaleHayes\Project 1\Capture day 1\Session 1\Male1.ASF
:FULLY-SPECIFIED
:DEGREES
49
root -28.5644 17.0216 1.0133 38.956 83.3904 37.728
lowerback 7.1128 1.17129 -7.74636
upperback 1.05859 0.98372 -0.588578
thorax -3.01063 0.586442 3.64304
lowerneck -26.3627 3.91444 5.27317
upperneck 27.5978 4.85782 -3.71739
head 14.0598 2.19622 -1.41076
rclavicle 9.00743e-016 -2.93704e-014
rhumerus -34.1793 6.24482 -91.1878
rradius 32.475
rwrist 2.81633
rhand -11.7004 -28.6731
rfingers 7.12502
rthumb 14.3457 -58.1574
lclavicle 9.00743e-016 -2.93704e-014
lhumerus -28.6549 -24.9124 91.3396
lradius 33.6748
lwrist -4.19365
lhand -13.5535 -24.2535
lfingers 7.12502
lthumb 12.5596 5.34899
rfemur 6.83442 -5.30645 11.4175
rtibia 8.95563
rfoot -24.2789 -5.23859
rtoes 5.23503
lfemur 10.1491 2.15258 -19.8222
ltibia 4.37245
lfoot -21.6716 9.66009
ltoes -8.93026
50
root -28.5246 17.0181 1.01689 38.2684 83.5143 36.7925
lowerback 7.01585 1.10825 -7.59579
upperback 1.02784 0.918975 -0.510198
thorax -2.97979 0.551779 3.64795
lowerneck -26.4372 3.97028 5.38939
upperneck 27.6038 4.96443 -3.95401
head 14.0955 2.21845 -1.50398
rclavicle 7.21837e-015 -2.50469e-014
rhumerus -34.4858 6.61822 -91.2761
rradius 32.9403
rwrist 2.39795
rhand -11.5442 -28.7525
rfingers 7.12502
rthumb 14.4962 -58.2261
lclavicle 7.21837e-015 -2.50469e-014
lhumerus -28.4735 -25.0896 91.1771
lradius 34.5033
lwrist -3.42004
lhand -13.7085 -24.4741
lfingers 7.12502
lthumb 12.4102 5.13747
rfemur 6.74971 -5.33728 11.6488
rtibia 8.90811
rfoot -24.2895 -5.406
rtoes 4.60904
lfemur 9.94722 2.18423 -19.6382
ltibia 4.57193
lfoot -21.9286 9.44762
ltoes -8.36155
51
root -28.4879 17.015 1.02515 36.3 83.6132 34.5823
lowerback 6.99104 1.10643 -7.23654
upperback 1.00799 0.943117 -0.536706
thorax -2.98355 0.559912 3.41659
lowerneck -26.5456 4.05676 5.5589
upperneck 27.5971 5.00946 -3.96418
head 14.1235 2.25181 -1.52637
rclavicle -1.97542e-015 -8.54774e-015
rhumerus -34.8371 6.76493 -91.4687
rradius 33.4568
rwrist 1.98667
rhand -11.4796 -28.7453
rfingers 7.12502
rthumb 14.5585 -58.2144
lclavicle -1.97542e-015 -8.54774e-015
lhumerus -27.9644 -24.978 90.5421
lradius 35.1553
lwrist -4.19224
lhand -13.367 -24.9863
lfingers 7.12502
lthumb 12.7394 4.60512
rfemur 6.63032 -5.39884 11.9907
rtibia 8.8778
rfoot -24.3223 -5.31013
rtoes 4.66156
lfemur 9.7848 2.54021 -19.2094
ltibia 4.71139
lfoot -22.0012 9.13115
ltoes -8.23207
52
root -28.4533 17.0119 1.03934 35.4728 83.5588 33.5768
lowerback 7.04309 1.14716 -7.18026
upperback 1.03396 0.997778 -0.579217
thorax -2.99006 0.58619 3.33484
lowerneck -26.8131 4.05436 5.74076
upperneck 27.6745 4.94304 -4.06196
head 14.2171 2.22363 -1.60808
rclavicle -2.18663e-015 1.59028e-015
rhumerus -35.162 7.1389 -91.7213
rradius 34.2547
rwrist 1.19816
rhand -11.1734 -29.2508
rfingers 7.12502
rthumb 14.8535 -58.6984
lclavicle -2.18663e-015 1.59028e-015
lhumerus -27.6603 -25.6406 90.342
lradius 35.9319
lwrist -2.75101
lhand -13.9138 -24.6804
lfingers 7.12502
lthumb 12.2122 4.94312
rfemur 6.5184 -5.36281 12.124
rtibia 8.9412
rfoot -24.452 -5.20365
rtoes 5.40983
lfemur 9.80917 2.55394 -19.1103
ltibia 4.54981
lfoot -21.9626 9.24455
ltoes -8.02821
53
root -28.4117 17.0068 1.0529 35.6205 83.3626 33.5806
lowerback 7.03918 1.18568 -7.43242
upperback 1.07904 1.03419 -0.544142
thorax -2.94976 0.604994 3.50959
lowerneck -26.9407 4.08968 5.75184
upperneck 27.5824 5.031 -4.23538
head 14.2152 2.23298 -1.66116
rclavicle -2.91965e-015 1.5704e-014
rhumerus -35.5052 7.65541 -91.7965
rradius 34.9392
rwrist 0.624132
rhand -11.0267 -29.2359
rfingers 7.12502
rthumb 14.9948 -58.673
lclavicle -2.91965e-015 1.5704e-014
lhumerus -27.622 -25.7665 90.2099
lradius 37.1109
lwrist -1.79711
lhand -14.2706 -24.2313
lfingers 7.12502
lthumb 11.8682 5.41239
rfemur 6.39993 -5.25224 12.0472
rtibia 9.11624
rfoot -24.6058 -5.11765
rtoes 6.09522
lfemur 9.90121 2.46716 -19.2573
ltibia 4.38351
lfoot -22.0547 9.34022
ltoes -7.13938
54
root -28.364 17.0018 1.06424 34.2052 83.2029 32.0078
lowerback 6.99689 1.24128 -7.44194
upperback 1.12009 1.11425 -0.499623
thorax -2.89361 0.642001 3.55442
lowerneck -27.0762 4.17785 5.79803
upperneck 27.4673 5.13787 -4.29597
head 14.2036 2.27012 -1.66995
rclavicle -1.10201e-014 -1.86858e-014
rhumerus -35.9277 8.17208 -91.8766
rradius 35.5804
rwrist -0.00113932
rhand -11.0325 -29.0581
rfingers 7.12502
rthumb 14.9892 -58.4956
lclavicle -1.10201e-014 -1.86858e-014
lhumerus -27.5764 -26.1486 89.9843
lradius 38.2844
lwrist -1.2856
lhand -14.8027 -23.931
lfingers 7.12502
lthumb 11.3551 5.74153
rfemur 6.31594 -5.1807 12.1444
rtibia 9.21975
rfoot -24.655 -5.0049
rtoes 6.16925
lfemur 9.99002 2.76064 -19.0646
ltibia 4.29803
lfoot -22.2289 9.13165
ltoes -7.21437
55
root -28.3236 16.9954 1.07726 31.9196 83.2972 29.3823
lowerback 6.89644 1.21743 -7.16993
upperback 1.12824 1.11209 -0.436264
thorax -2.82506 0.635257 3.46978
lowerneck -27.5415 4.24757 5.97265
upperneck 27.6683 5.14474 -4.3184
head 14.3936 2.28014 -1.7044
rclavicle 2.32702e-014 -6.95746e-015
rhumerus -36.3268 8.77123 -92.0675
rradius 36.2547
rwrist -0.731461
rhand -11.0436 -29.1873
rfingers 7.12502
rthumb 14.9785 -58.6256
lclavicle 2.32702e-014 -6.95746e-015
lhumerus -27.4808 -26.3076 89.6482
lradius 39.4489
lwrist -0.771792
lhand -15.1058 -23.5303
lfingers 7.12502
lthumb 11.0627 6.15818
rfemur 6.09979 -5.21621 12.5786
rtibia 9.17383
rfoot -24.6157 -5.32104
rtoes 4.73713
lfemur 9.8335 2.95083 -18.5808
ltibia 4.21697
lfoot -22.3207 9.01494
ltoes -7.92403
56
root -28.298 16.9851 1.09628 34.0493 83.4252 30.9955
lowerback 6.85255 1.10079 -7.39034
upperback 1.0328 0.939204 -0.436433
thorax -2.88379 0.555533 3.60977
lowerneck -27.8917 4.30121 5.90516
upperneck 27.7819 5.17774 -4.16432
head 14.5097 2.30265 -1.6208
rclavicle -7.442e-015 -2.25621e-014
rhumerus -36.8361 9.36754 -92.2883
rradius 36.9957
rwrist -1.27468
rhand -11.0639 -29.4101
rfingers 7.12502
rthumb 14.9589 -58.8498
lclavicle -7.442e-015 -2.25621e-014
lhumerus -27.4837 -26.0888 89.3757
lradius 40.6878
lwrist -0.25982
lhand -14.7347 -23.4581
lfingers 7.12502
lthumb 11.4206 6.21085
rfemur 5.71511 -5.39296 12.5739
rtibia 9.08259
rfoot -24.6028 -5.91723
rtoes 2.96525
lfemur 9.27931 2.93515 -18.6133
ltibia 4.307
lfoot -22.3256 8.77976
ltoes -7.68518
57
root -28.2739 16.978 1.11879 37.9388 83.3989 34.5163
lowerback 7.02256 1.04749 -7.8995
upperback 0.927704 0.80885 -0.492771
thorax -3.0794 0.506346 3.84663
lowerneck -27.9938 4.30732 5.84369
upperneck 27.6654 5.14613 -4.02468
head 14.4703 2.29922 -1.55818
rclavicle -9.3553e-015 2.05742e-014
rhumerus -37.5435 9.82416 -92.5175
rradius 37.8705
rwrist -1.78212
rhand -11.1928 -29.6048
rfingers 7.12502
rthumb 14.8347 -59.0538
lclavicle -9.3553e-015 2.05742e-014
lhumerus -27.7129 -26.1281 89.2357
lradius 42.1503
lwrist 0.551104
lhand -14.9537 -23.3548
lfingers 7.12502
lthumb 11.2094 6.32579
rfemur 5.49135 -5.52806 12.2458
rtibia 9.02102
rfoot -24.7229 -6.26891
rtoes 2.03725
lfemur 8.89019 3.00129 -18.9013
ltibia 4.42295
lfoot -22.378 8.34166
ltoes -7.32359
